<svg xmlns="http://www.w3.org/2000/svg" style="display:none">
  <!-- ============================================
       MANASHARD FANTASY ICON SPRITES
       Granblue Fantasy-inspired mystical icons
       ============================================ -->

  <!-- === STATUS EFFECTS === -->
  <symbol id="gi-beguile" viewBox="0 0 24 24">
    <path d="M12 2C6.48 2 2 6.48 2 12s4.48 10 10 10 10-4.48 10-10S17.52 2 12 2zm0 3c1.66 0 3 1.34 3 3s-1.34 3-3 3-3-1.34-3-3 1.34-3 3-3zm-1 14.5c-2.33 0-4.32-1.45-5.12-3.5h1.67c.69 1.19 1.97 2 3.45 2s2.76-.81 3.45-2h1.67c-.8 2.05-2.79 3.5-5.12 3.5z" fill="currentColor"/>
    <path d="M12 7l1.5 1.5L12 10l-1.5-1.5z" fill="currentColor" opacity="0.7"/>
    <circle cx="9" cy="8" r="0.8" fill="currentColor"/>
    <circle cx="15" cy="8" r="0.8" fill="currentColor"/>
    <path d="M8.5 14.5Q10 17 12 17t3.5-2.5" fill="none" stroke="currentColor" stroke-width="1.2" stroke-linecap="round"/>
  </symbol>

  <symbol id="gi-blight" viewBox="0 0 24 24">
    <path d="M12 2L9 9l-7 3 7 3 3 7 3-7 7-3-7-3z" fill="none" stroke="currentColor" stroke-width="1.5" stroke-linejoin="round"/>
    <circle cx="12" cy="12" r="3" fill="currentColor" opacity="0.6"/>
    <path d="M12 6v-2M12 20v-2M6 12H4M20 12h-2M8.46 8.46l-1.42-1.42M16.96 16.96l-1.42-1.42M8.46 15.54l-1.42 1.42M16.96 7.04l-1.42 1.42" stroke="currentColor" stroke-width="1" stroke-linecap="round" opacity="0.5"/>
  </symbol>

  <symbol id="gi-expose" viewBox="0 0 24 24">
    <path d="M12 4.5C7 4.5 2.73 7.61 1 12c1.73 4.39 6 7.5 11 7.5s9.27-3.11 11-7.5c-1.73-4.39-6-7.5-11-7.5z" fill="none" stroke="currentColor" stroke-width="1.5"/>
    <circle cx="12" cy="12" r="3.5" fill="currentColor" opacity="0.6"/>
    <circle cx="12" cy="12" r="1.5" fill="currentColor"/>
    <path d="M3 3l18 18" stroke="currentColor" stroke-width="1.5" stroke-linecap="round" opacity="0.3"/>
  </symbol>

  <symbol id="gi-immobilize" viewBox="0 0 24 24">
    <path d="M12 2C6.48 2 2 6.48 2 12s4.48 10 10 10 10-4.48 10-10S17.52 2 12 2z" fill="none" stroke="currentColor" stroke-width="1.5"/>
    <path d="M8 8l8 8M16 8l-8 8" stroke="currentColor" stroke-width="2" stroke-linecap="round"/>
    <path d="M12 17v3M7 15l-2 2M17 15l2 2" stroke="currentColor" stroke-width="1.2" stroke-linecap="round" opacity="0.5"/>
  </symbol>

  <symbol id="gi-impair" viewBox="0 0 24 24">
    <path d="M19 6.41L17.59 5 12 10.59 6.41 5 5 6.41 10.59 12 5 17.59 6.41 19 12 13.41 17.59 19 19 17.59 13.41 12z" fill="currentColor" opacity="0.6"/>
    <path d="M12 2v4M12 18v4M2 12h4M18 12h4" stroke="currentColor" stroke-width="1.5" stroke-linecap="round" opacity="0.4"/>
  </symbol>

  <symbol id="gi-silence" viewBox="0 0 24 24">
    <path d="M12 2C6.48 2 2 6.48 2 12s4.48 10 10 10 10-4.48 10-10S17.52 2 12 2z" fill="none" stroke="currentColor" stroke-width="1.5"/>
    <path d="M8 15h8" stroke="currentColor" stroke-width="2" stroke-linecap="round"/>
    <circle cx="9" cy="10" r="1.2" fill="currentColor"/>
    <circle cx="15" cy="10" r="1.2" fill="currentColor"/>
    <path d="M4 4l16 16" stroke="currentColor" stroke-width="1.5" stroke-linecap="round" opacity="0.4"/>
  </symbol>

  <symbol id="gi-stun" viewBox="0 0 24 24">
    <path d="M12 2l2.5 7.5L22 12l-7.5 2.5L12 22l-2.5-7.5L2 12l7.5-2.5z" fill="currentColor" opacity="0.5"/>
    <path d="M12 2l2.5 7.5L22 12l-7.5 2.5L12 22l-2.5-7.5L2 12l7.5-2.5z" fill="none" stroke="currentColor" stroke-width="1.5" stroke-linejoin="round"/>
    <circle cx="12" cy="12" r="2" fill="currentColor"/>
  </symbol>

  <symbol id="gi-taunt" viewBox="0 0 24 24">
    <path d="M12 2L4 7v5c0 5.55 3.84 10.74 8 12 4.16-1.26 8-6.45 8-12V7z" fill="none" stroke="currentColor" stroke-width="1.5"/>
    <path d="M12 8v4M12 14v2" stroke="currentColor" stroke-width="2" stroke-linecap="round"/>
  </symbol>

  <!-- === ELEMENTS === -->
  <symbol id="gi-fire" viewBox="0 0 24 24">
    <path d="M12 2c-1 4-4 6-4 10 0 3.31 2.69 6 6 6 1.66 0 3.16-.67 4.24-1.76C18.84 15.64 19 14.84 19 14c0-4-3-6-4-8-1 2-3 3-3 6 0 1.1-.9 2-2 2s-2-.9-2-2c0-2 2-5 4-10z" fill="currentColor" opacity="0.8"/>
    <path d="M12 2c-1 4-4 6-4 10 0 3.31 2.69 6 6 6 1.66 0 3.16-.67 4.24-1.76" fill="none" stroke="currentColor" stroke-width="1.2"/>
  </symbol>

  <symbol id="gi-ice" viewBox="0 0 24 24">
    <path d="M12 2v20M2 12h20M5.64 5.64l12.72 12.72M18.36 5.64L5.64 18.36" stroke="currentColor" stroke-width="1.5" stroke-linecap="round"/>
    <circle cx="12" cy="12" r="3" fill="currentColor" opacity="0.3"/>
    <path d="M12 5l-1.5 2h3zM12 19l-1.5-2h3zM5 12l2-1.5v3zM19 12l-2-1.5v3z" fill="currentColor" opacity="0.6"/>
  </symbol>

  <symbol id="gi-water" viewBox="0 0 24 24">
    <path d="M12 2.69l5.66 5.66A8 8 0 1 1 6.34 8.35z" fill="currentColor" opacity="0.5"/>
    <path d="M12 2.69l5.66 5.66A8 8 0 1 1 6.34 8.35z" fill="none" stroke="currentColor" stroke-width="1.5"/>
    <path d="M9 14c0-1.5 1.5-3 3-3s3 1.5 3 3" fill="none" stroke="currentColor" stroke-width="1" opacity="0.5"/>
  </symbol>

  <symbol id="gi-lightning" viewBox="0 0 24 24">
    <path d="M13 2L4 14h7l-2 8 11-12h-7z" fill="currentColor" opacity="0.6"/>
    <path d="M13 2L4 14h7l-2 8 11-12h-7z" fill="none" stroke="currentColor" stroke-width="1.5" stroke-linejoin="round"/>
  </symbol>

  <symbol id="gi-wind" viewBox="0 0 24 24">
    <path d="M3.5 8h10a3 3 0 1 0-3-3" fill="none" stroke="currentColor" stroke-width="1.5" stroke-linecap="round"/>
    <path d="M5 12h12a3 3 0 1 1-3 3" fill="none" stroke="currentColor" stroke-width="1.5" stroke-linecap="round"/>
    <path d="M8 16h6a2 2 0 1 1-2 2" fill="none" stroke="currentColor" stroke-width="1.5" stroke-linecap="round"/>
  </symbol>

  <symbol id="gi-earth" viewBox="0 0 24 24">
    <path d="M12 2C6.48 2 2 6.48 2 12s4.48 10 10 10 10-4.48 10-10S17.52 2 12 2z" fill="none" stroke="currentColor" stroke-width="1.5"/>
    <path d="M4 8h4l2 2h4l2-2h4M6 16l3-2h6l3 2M8 12h8" stroke="currentColor" stroke-width="1" opacity="0.5"/>
    <path d="M7 7l2 3M17 7l-2 3M9 17l1-3M15 17l-1-3" stroke="currentColor" stroke-width="1" opacity="0.3"/>
  </symbol>

  <symbol id="gi-light" viewBox="0 0 24 24">
    <circle cx="12" cy="12" r="5" fill="currentColor" opacity="0.4"/>
    <circle cx="12" cy="12" r="5" fill="none" stroke="currentColor" stroke-width="1.5"/>
    <path d="M12 2v3M12 19v3M2 12h3M19 12h3M4.93 4.93l2.12 2.12M16.95 16.95l2.12 2.12M4.93 19.07l2.12-2.12M16.95 7.05l2.12-2.12" stroke="currentColor" stroke-width="1.5" stroke-linecap="round"/>
  </symbol>

  <symbol id="gi-dark" viewBox="0 0 24 24">
    <path d="M12 3a9 9 0 1 0 9 9c0-.46-.04-.92-.1-1.36a5.389 5.389 0 0 1-4.4 2.26 5.403 5.403 0 0 1-3.14-9.8c-.44-.06-.9-.1-1.36-.1z" fill="currentColor" opacity="0.6"/>
    <path d="M12 3a9 9 0 1 0 9 9c0-.46-.04-.92-.1-1.36a5.389 5.389 0 0 1-4.4 2.26 5.403 5.403 0 0 1-3.14-9.8c-.44-.06-.9-.1-1.36-.1z" fill="none" stroke="currentColor" stroke-width="1.5"/>
    <circle cx="16" cy="6" r="1" fill="currentColor" opacity="0.5"/>
    <circle cx="19" cy="9" r="0.6" fill="currentColor" opacity="0.4"/>
  </symbol>

  <!-- === ENEMY ROLES === -->
  <symbol id="gi-minion" viewBox="0 0 24 24">
    <circle cx="12" cy="8" r="3" fill="none" stroke="currentColor" stroke-width="1.5"/>
    <path d="M6 21v-2a6 6 0 0 1 12 0v2" fill="none" stroke="currentColor" stroke-width="1.5"/>
  </symbol>

  <symbol id="gi-standard" viewBox="0 0 24 24">
    <path d="M12 2L4 7v5c0 5.55 3.84 10.74 8 12 4.16-1.26 8-6.45 8-12V7z" fill="none" stroke="currentColor" stroke-width="1.5"/>
    <path d="M12 7v6M9 13h6" stroke="currentColor" stroke-width="1.5" stroke-linecap="round" opacity="0.6"/>
  </symbol>

  <symbol id="gi-elite" viewBox="0 0 24 24">
    <path d="M12 2L4 7v5c0 5.55 3.84 10.74 8 12 4.16-1.26 8-6.45 8-12V7z" fill="currentColor" opacity="0.3"/>
    <path d="M12 2L4 7v5c0 5.55 3.84 10.74 8 12 4.16-1.26 8-6.45 8-12V7z" fill="none" stroke="currentColor" stroke-width="1.5"/>
    <path d="M12 8l1.5 3 3 .5-2 2.5.5 3L12 16l-3 1 .5-3-2-2.5 3-.5z" fill="currentColor" opacity="0.7"/>
  </symbol>

  <symbol id="gi-boss" viewBox="0 0 24 24">
    <path d="M5 16L3 5l5.5 5L12 4l3.5 6L21 5l-2 11z" fill="currentColor" opacity="0.4"/>
    <path d="M5 16L3 5l5.5 5L12 4l3.5 6L21 5l-2 11z" fill="none" stroke="currentColor" stroke-width="1.5" stroke-linejoin="round"/>
    <path d="M5 16h14v2c0 1-2 3-7 3s-7-2-7-3z" fill="currentColor" opacity="0.3" stroke="currentColor" stroke-width="1.5"/>
    <circle cx="12" cy="4" r="1" fill="currentColor"/>
    <circle cx="3" cy="5" r="1" fill="currentColor"/>
    <circle cx="21" cy="5" r="1" fill="currentColor"/>
  </symbol>

  <symbol id="gi-legendary" viewBox="0 0 24 24">
    <path d="M12 2l3 6 6 1-4.5 4 1.5 6-6-3.5L6 19l1.5-6L3 9l6-1z" fill="currentColor" opacity="0.4"/>
    <path d="M12 2l3 6 6 1-4.5 4 1.5 6-6-3.5L6 19l1.5-6L3 9l6-1z" fill="none" stroke="currentColor" stroke-width="1.5" stroke-linejoin="round"/>
    <circle cx="12" cy="11" r="2.5" fill="currentColor" opacity="0.5"/>
  </symbol>

  <!-- === MANACITE TYPES === -->
  <symbol id="gi-magic" viewBox="0 0 24 24">
    <path d="M12 2l2 7h7l-5.5 4 2 7L12 16l-5.5 4 2-7L3 9h7z" fill="currentColor" opacity="0.3"/>
    <path d="M12 2l2 7h7l-5.5 4 2 7L12 16l-5.5 4 2-7L3 9h7z" fill="none" stroke="currentColor" stroke-width="1.5" stroke-linejoin="round"/>
    <circle cx="12" cy="10" r="2" fill="currentColor" opacity="0.5"/>
  </symbol>

  <symbol id="gi-art" viewBox="0 0 24 24">
    <path d="M14.5 2.5L2 15l5.5 5.5L22 6z" fill="none" stroke="currentColor" stroke-width="1.5" stroke-linejoin="round"/>
    <path d="M14.5 2.5l5 2.5L22 6" stroke="currentColor" stroke-width="1.5" stroke-linejoin="round"/>
    <path d="M6 14l4 4" stroke="currentColor" stroke-width="1" opacity="0.4"/>
    <circle cx="18" cy="4.5" r="1" fill="currentColor"/>
  </symbol>

  <symbol id="gi-passive" viewBox="0 0 24 24">
    <circle cx="12" cy="12" r="9" fill="none" stroke="currentColor" stroke-width="1.5"/>
    <circle cx="12" cy="12" r="4" fill="currentColor" opacity="0.3"/>
    <circle cx="12" cy="12" r="4" fill="none" stroke="currentColor" stroke-width="1"/>
    <path d="M12 3v2M12 19v2M3 12h2M19 12h2" stroke="currentColor" stroke-width="1.5" stroke-linecap="round" opacity="0.5"/>
  </symbol>

  <!-- === COMBAT OBJECTIVES === -->
  <symbol id="gi-skull" viewBox="0 0 24 24">
    <path d="M12 2C7.58 2 4 5.58 4 10c0 2.76 1.34 5.2 3.4 6.72V20h2v-2h5v2h2v-3.28C18.66 15.2 20 12.76 20 10c0-4.42-3.58-8-8-8z" fill="none" stroke="currentColor" stroke-width="1.5"/>
    <circle cx="9.5" cy="10" r="1.5" fill="currentColor"/>
    <circle cx="14.5" cy="10" r="1.5" fill="currentColor"/>
    <path d="M10 15h4" stroke="currentColor" stroke-width="1" stroke-linecap="round"/>
    <path d="M11 15v2M13 15v2" stroke="currentColor" stroke-width="0.8" stroke-linecap="round" opacity="0.5"/>
  </symbol>

  <symbol id="gi-hourglass" viewBox="0 0 24 24">
    <path d="M6 2v6l4 4-4 4v6h12v-6l-4-4 4-4V2z" fill="none" stroke="currentColor" stroke-width="1.5"/>
    <path d="M8 4h8M8 20h8" stroke="currentColor" stroke-width="1" opacity="0.4"/>
    <path d="M10 8l2 2 2-2" fill="currentColor" opacity="0.3"/>
    <path d="M9 17h6l-3-3z" fill="currentColor" opacity="0.3"/>
  </symbol>

  <symbol id="gi-exit" viewBox="0 0 24 24">
    <path d="M10 9V5l7 7-7 7v-4H3V9z" fill="currentColor" opacity="0.5"/>
    <path d="M10 9V5l7 7-7 7v-4H3V9z" fill="none" stroke="currentColor" stroke-width="1.5"/>
    <path d="M21 3v18" stroke="currentColor" stroke-width="1.5" stroke-linecap="round"/>
  </symbol>

  <symbol id="gi-castle" viewBox="0 0 24 24">
    <path d="M3 21h18v-8l-3-3V5h-2v3h-2V5h-2v3h-2V5H8v3H6V5H4v5L1 13v8z" fill="none" stroke="currentColor" stroke-width="1.5"/>
    <rect x="10" y="15" width="4" height="6" fill="currentColor" opacity="0.3"/>
    <path d="M4 3v2M8 3v2M12 3v2M16 3v2M20 3v2" stroke="currentColor" stroke-width="1.5" stroke-linecap="round" opacity="0.5"/>
  </symbol>

  <symbol id="gi-handshake" viewBox="0 0 24 24">
    <path d="M2 10l4-4 4 2 4-4 4 2 4-2v8l-4 4-4-2-4 4-4-2-4 2z" fill="none" stroke="currentColor" stroke-width="1.5" stroke-linejoin="round"/>
    <path d="M8.5 11L12 14.5 15.5 11" fill="none" stroke="currentColor" stroke-width="1.2" stroke-linecap="round" stroke-linejoin="round" opacity="0.6"/>
  </symbol>
</svg>
